M48
INCH
T01C0.0236
T02C0.0354
T03C0.0433
T04C0.0472
T05C0.0551
T06C0.1181
T07C0.126
%
T01
X+011383Y+019569
X+012207Y+019183
X+013561Y+019569
X+014207Y+019183
X+014672Y+017088
X+014207Y+016596
X+012171Y+015418
X+010442Y+012652
X+014672Y+011490
X+015157Y+012207
X+017176Y+015418
X+019871Y+017088
X+019122Y+019183
X+024345Y+018292
X+024996Y+019859
X+029773Y+018745
X+031775Y+018745
X+034278Y+014265
X+033496Y+013478
X+033883Y+012906
X+033296Y+012198
X+034437Y+011205
X+034437Y+010251
X+034578Y+009679
X+034063Y+008053
X+034063Y+006590
X+034578Y+005121
X+035449Y+005307
X+031756Y+008097
X+030988Y+006937
X+029214Y+006072
X+027677Y+005685
X+026006Y+006937
X+023917Y+006072
X+022249Y+006512
X+021456Y+006898
X+021476Y+008167
X+022249Y+008167
X+019181Y+007465
X+021407Y+011576
X+025434Y+010425
X+026070Y+010421
X+026756Y+011906
X+026770Y+012906
X+027730Y+013478
X+028827Y+014265
X+029800Y+013292
X+030304Y+013697
X+032351Y+013492
X+031947Y+011339
X+031374Y+011377
X+031473Y+010076
X+029414Y+009005
X+027970Y+009636
X+028827Y+011425
X+035529Y+013879
X+036073Y+011134
X+039739Y+007960
X+041835Y+014145
X+044935Y+014239
X+045924Y+013852
X+008884Y+018997
X+008884Y+020051
X+004339Y+020437
T02
X+038720Y+012237
X+040220Y+012237
T03
X+005957Y+011015
X+006957Y+011015
X+007957Y+011015
X+008957Y+011015
X+009957Y+011015
X+013157Y+011006
X+014157Y+011006
X+015157Y+011006
X+016157Y+011006
X+017157Y+011006
X+017207Y+006981
X+018207Y+006981
X+020756Y+004601
X+021756Y+004601
X+022756Y+004601
X+023756Y+004601
X+024756Y+004601
X+025756Y+004601
X+026756Y+004601
X+027756Y+004601
X+028756Y+004601
X+029756Y+004601
X+030756Y+004601
X+031756Y+004601
X+033063Y+004636
X+034063Y+004636
X+035063Y+004636
X+036063Y+004636
X+037063Y+004636
X+038063Y+004636
X+039063Y+004636
X+040063Y+004636
X+041063Y+004636
X+042063Y+004636
X+043063Y+004636
X+044063Y+004636
X+030304Y+007421
X+030304Y+008421
X+030304Y+009421
X+030304Y+010421
X+030304Y+011421
X+030304Y+012421
X+024949Y+011940
X+024949Y+010940
X+024949Y+009940
X+024949Y+008940
X+024949Y+007940
X+012707Y+006981
X+011707Y+006981
X+007207Y+006981
X+006207Y+006981
T04
X+008749Y+014875
X+012687Y+014875
X+013207Y+007981
X+014207Y+007981
X+015707Y+007981
X+016707Y+007981
X+018707Y+007981
X+019707Y+007981
X+017707Y+005981
X+012207Y+005981
X+011207Y+007981
X+010207Y+007981
X+008707Y+007981
X+007707Y+007981
X+005707Y+007981
X+004707Y+007981
X+006707Y+005981
X+006781Y+022737
X+014656Y+022737
X+021281Y+022737
X+029156Y+022737
X+035781Y+022737
X+043656Y+022737
X+041687Y+014875
X+037749Y+014875
X+027187Y+014875
X+023249Y+014875
T05
X+005259Y+025988
X+007259Y+025988
X+009516Y+025967
X+011516Y+025967
X+013774Y+025968
X+015774Y+025968
T06
X+043423Y+012132
X+042360Y+010282
X+044801Y+010282
T07
X+032437Y+025562
X+017812Y+025562
X+018970Y+011206
X+041040Y+007502
T00
M30
