G04 DipTrace 2.4.0.2*
%INTop.gtl*%
%MOIN*%
%ADD14C,0.01*%
%ADD15C,0.0787*%
%ADD16R,0.0906X0.0906*%
%ADD17C,0.0906*%
%ADD18R,0.0512X0.0591*%
%ADD19R,0.0669X0.0669*%
%ADD20C,0.0669*%
%ADD22C,0.0669*%
%ADD28C,0.1575*%
%ADD29R,0.1575X0.1575*%
%ADD30R,0.0787X0.126*%
%ADD31C,0.0591*%
%ADD33C,0.0472*%
%FSLAX44Y44*%
G04*
G70*
G90*
G75*
G01*
%LNTop*%
%LPD*%
X7259Y25988D2*
D14*
X9966Y23281D1*
X14113D1*
X14656Y22737D1*
X13774Y25968D2*
X16024Y23719D1*
X34800D1*
X35781Y22737D1*
X15774Y25968D2*
X15526D1*
X17148Y24346D1*
X42048D1*
X43656Y22737D1*
X13561Y19569D2*
X11383D1*
X13207Y7981D2*
X13692Y8465D1*
X18222D1*
X18707Y7981D1*
X19181Y7465D2*
X19992D1*
X20192Y7665D1*
Y7967D1*
X20392Y8167D1*
X21476D1*
X22249D2*
X22377Y8038D1*
Y7535D1*
X8884Y20051D2*
Y18997D1*
X7957Y11015D2*
Y13039D1*
X8157Y13239D1*
X22200D1*
X22400Y13039D1*
Y12142D1*
X14157Y11006D2*
X13672Y10521D1*
X7451D1*
X6957Y11015D1*
X14207Y16596D2*
Y19183D1*
X6957Y11015D2*
Y10521D1*
X6692Y10256D1*
Y6665D1*
X6892Y6465D1*
X20508D1*
X20708Y6665D1*
Y7530D1*
X4339Y20437D2*
X24418D1*
X24996Y19859D1*
X17176Y15418D2*
X12171D1*
X8957Y11015D2*
Y12452D1*
X9157Y12652D1*
X10442D1*
X21853D1*
Y10643D1*
X22440D1*
X24345Y18292D2*
X34332D1*
X37749Y14875D1*
X12207Y19183D2*
Y16046D1*
X12407Y15846D1*
X26215D1*
X27187Y14875D1*
X9957Y11015D2*
X12234D1*
X12710Y11490D1*
X14672D1*
Y17088D2*
X19871D1*
X14672Y11490D2*
X15441D1*
X15641Y11290D1*
Y9805D1*
X15841Y9605D1*
X22426D1*
Y9095D1*
X19122Y19183D2*
X37379D1*
X41687Y14875D1*
X44801Y10282D2*
Y12870D1*
X44601Y13070D1*
X41053D1*
X40220Y12237D1*
X30304Y12421D2*
X26257D1*
X25775Y11940D1*
X24949D1*
X38585Y7329D2*
Y6808D1*
X38385Y6608D1*
X36734D1*
X36534Y6808D1*
Y7253D1*
X22249Y6512D2*
X22925D1*
X23125Y6712D1*
Y7535D1*
X30304Y11421D2*
X31330D1*
X31374Y11377D1*
X36918Y11929D2*
X37508D1*
X37708Y12129D1*
Y12387D1*
X35245Y14851D1*
X28641D1*
X28441Y14651D1*
Y13897D1*
X28641Y13697D1*
X30304D1*
X36073Y11134D2*
Y11729D1*
X36273Y11929D1*
X36918D1*
X40220Y12237D2*
X38917Y10934D1*
X36918D1*
X36718Y11134D1*
X36073D1*
X36918Y9252D2*
Y10934D1*
X36534Y7253D2*
Y8047D1*
X36918Y8431D1*
Y9252D1*
X15157Y11006D2*
X13566Y9415D1*
X10141D1*
X8707Y7981D1*
X15157Y12207D2*
X20659D1*
X8707Y7981D2*
X7707Y6981D1*
X7207D1*
X31775Y18745D2*
X29773D1*
X14207Y7981D2*
X13207Y6981D1*
X12707D1*
X16157Y11006D2*
X16899Y10263D1*
X20699D1*
Y10708D1*
X19707Y7981D2*
Y8960D1*
X19907Y9160D1*
X20685D1*
X38720Y12237D2*
X40628Y14145D1*
X41835D1*
X33496Y13478D2*
X34069D1*
X34269Y13278D1*
Y11791D1*
X34069Y11591D1*
X32989D1*
X31473Y10076D1*
X21456Y6898D2*
Y7530D1*
X41835Y14145D2*
X41929Y14239D1*
X44935D1*
X26070Y10421D2*
X25589Y9940D1*
X24949D1*
X30304Y10421D2*
X26070D1*
X31473Y10076D2*
Y10429D1*
X31192D1*
X31185Y10421D1*
X30304D1*
X45924Y13852D2*
Y8639D1*
X45724Y8439D1*
X37482D1*
X37282Y8239D1*
Y7253D1*
X35343Y9252D2*
Y11929D1*
X23917Y6072D2*
X29214D1*
X35529Y13879D2*
X32737D1*
X32351Y13492D1*
X35343Y11929D2*
Y13000D1*
X35529Y13185D1*
Y13879D1*
X35449Y5307D2*
X39133D1*
X39333Y5507D1*
Y7329D1*
X29800Y13292D2*
X29614Y13478D1*
X27730D1*
X27970Y9636D2*
X29318D1*
X29533Y9421D1*
X30304D1*
X25434Y10425D2*
X25915Y10906D1*
X31514D1*
X31947Y11339D1*
X21407Y11576D2*
Y12207D1*
X30988Y6937D2*
X26006D1*
X24503D1*
X24303Y7137D1*
Y9605D1*
X24103Y9805D1*
X21647D1*
X21447Y10005D1*
Y10708D1*
X26756Y4601D2*
X26271Y5085D1*
X22062D1*
X21862Y5285D1*
Y9160D1*
X21433D1*
X26756Y11906D2*
X33003D1*
X33296Y12198D1*
X33883Y12906D2*
X26770D1*
X23348D1*
X23148Y12706D1*
Y12142D1*
X28827Y11425D2*
X23388D1*
X23188Y11225D1*
Y10643D1*
X28827Y14265D2*
X34278D1*
X29756Y4601D2*
X28671Y5685D1*
X27677D1*
X23731D1*
X23531Y5885D1*
Y8271D1*
X23174Y8628D1*
Y9095D1*
X28285Y7526D2*
X29410D1*
X29790Y7906D1*
X31015D1*
X31207Y8097D1*
X31756D1*
X32533Y8874D1*
Y9301D1*
X34437Y11205D1*
X30756Y4601D2*
X33043Y6888D1*
Y8857D1*
X34437Y10251D1*
X28235Y9005D2*
X29414D1*
X39739Y7960D2*
Y5960D1*
X41063Y4636D1*
X34578Y5121D2*
Y9679D1*
X34063Y6590D2*
Y8053D1*
X27487Y9005D2*
X25499D1*
X25434Y8940D1*
X24949D1*
X27537Y7526D2*
X25848D1*
X25434Y7940D1*
X24949D1*
D33*
X11383Y19569D3*
X13561D3*
X22249Y8167D3*
X21476D3*
X19181Y7465D3*
X8884Y18997D3*
Y20051D3*
X14207Y19183D3*
Y16596D3*
X24996Y19859D3*
X4339Y20437D3*
X12171Y15418D3*
X17176D3*
X10442Y12652D3*
X24345Y18292D3*
X12207Y19183D3*
X19871Y17088D3*
X14672D3*
Y11490D3*
X19122Y19183D3*
X22249Y6512D3*
X31374Y11377D3*
X30304Y13697D3*
X36073Y11134D3*
X15157Y12207D3*
X29773Y18745D3*
X31775D3*
X41835Y14145D3*
X31473Y10076D3*
X33496Y13478D3*
X44935Y14239D3*
X21456Y6898D3*
X26070Y10421D3*
X45924Y13852D3*
X32351Y13492D3*
X29214Y6072D3*
X23917D3*
X35529Y13879D3*
X35449Y5307D3*
X27730Y13478D3*
X29800Y13292D3*
X27970Y9636D3*
X31947Y11339D3*
X21407Y11576D3*
X25434Y10425D3*
X30988Y6937D3*
X26006D3*
X33296Y12198D3*
X26756Y11906D3*
X26770Y12906D3*
X33883D3*
X34278Y14265D3*
X28827D3*
Y11425D3*
X27677Y5685D3*
X34437Y11205D3*
X31756Y8097D3*
X34437Y10251D3*
X29414Y9005D3*
X39739Y7960D3*
X34578Y9679D3*
Y5121D3*
X34063Y8053D3*
Y6590D3*
D15*
X8749Y14875D3*
X12687D3*
X6781Y22737D3*
X14656D3*
X23249Y14875D3*
X27187D3*
X21281Y22737D3*
X29156D3*
X37749Y14875D3*
X41687D3*
X35781Y22737D3*
X43656D3*
D16*
X5259Y25988D3*
D17*
X7259D3*
D16*
X9516Y25967D3*
D17*
X11516D3*
D16*
X13774Y25968D3*
D17*
X15774D3*
D19*
X5957Y11015D3*
D20*
X6957D3*
X7957D3*
X8957D3*
X9957D3*
D19*
X13157Y11006D3*
D20*
X14157D3*
X15157D3*
X16157D3*
X17157D3*
D19*
X6207Y6981D3*
D20*
X7207D3*
D19*
X11707D3*
D20*
X12707D3*
D19*
X17207D3*
D20*
X18207D3*
D22*
X4707Y7981D3*
X5707D3*
X6707Y5981D3*
X7707Y7981D3*
X8707D3*
X10207D3*
X11207D3*
X12207Y5981D3*
X13207Y7981D3*
X14207D3*
X15707D3*
X16707D3*
X17707Y5981D3*
X18707Y7981D3*
X19707D3*
D28*
X43423Y12132D3*
X42360Y10282D3*
D29*
X44801D3*
D18*
X36534Y7253D3*
X37282D3*
D19*
X30304Y12421D3*
D20*
Y11421D3*
Y10421D3*
Y9421D3*
Y8421D3*
Y7421D3*
D30*
X36918Y9252D3*
Y11929D3*
X35343Y9252D3*
Y11929D3*
D31*
X38720Y12237D3*
X40220D3*
D18*
X38585Y7329D3*
X39333D3*
D19*
X20756Y4601D3*
D20*
X21756D3*
X22756D3*
X23756D3*
X24756D3*
X25756D3*
X26756D3*
X27756D3*
X28756D3*
X29756D3*
X30756D3*
X31756D3*
D19*
X44063Y4636D3*
D20*
X43063D3*
X42063D3*
X41063D3*
X40063D3*
X39063D3*
X38063D3*
X37063D3*
X36063D3*
X35063D3*
X34063D3*
X33063D3*
D18*
X20659Y12207D3*
X21407D3*
X20699Y10708D3*
X21447D3*
X20685Y9160D3*
X21433D3*
X22400Y12142D3*
X23148D3*
X22440Y10643D3*
X23188D3*
X22426Y9095D3*
X23174D3*
X22377Y7535D3*
X23125D3*
X20708Y7530D3*
X21456D3*
D19*
X24949Y11940D3*
D20*
Y10940D3*
Y9940D3*
Y8940D3*
Y7940D3*
D18*
X27487Y9005D3*
X28235D3*
X27537Y7526D3*
X28285D3*
M02*
