G04 DipTrace 2.4.0.2*
%INTopMask.gts*%
%MOIN*%
%ADD22C,0.0669*%
%ADD35C,0.126*%
%ADD45R,0.0866X0.1339*%
%ADD47R,0.1654X0.1654*%
%ADD49C,0.1654*%
%ADD57C,0.0748*%
%ADD60C,0.0748*%
%ADD62R,0.0748X0.0748*%
%ADD64R,0.0591X0.0669*%
%ADD66C,0.0984*%
%ADD68R,0.0984X0.0984*%
%ADD70C,0.0866*%
%FSLAX44Y44*%
G04*
G70*
G90*
G75*
G01*
%LNTopMask*%
%LPD*%
D35*
X32437Y25562D3*
D70*
X8749Y14875D3*
X12687D3*
X6781Y22737D3*
X14656D3*
X23249Y14875D3*
X27187D3*
X21281Y22737D3*
X29156D3*
X37749Y14875D3*
X41687D3*
X35781Y22737D3*
X43656D3*
D68*
X5259Y25988D3*
D66*
X7259D3*
D68*
X9516Y25967D3*
D66*
X11516D3*
D68*
X13774Y25968D3*
D66*
X15774D3*
D35*
X17812Y25562D3*
D62*
X5957Y11015D3*
D60*
X6957D3*
X7957D3*
X8957D3*
X9957D3*
D62*
X13157Y11006D3*
D60*
X14157D3*
X15157D3*
X16157D3*
X17157D3*
D62*
X6207Y6981D3*
D60*
X7207D3*
D62*
X11707D3*
D60*
X12707D3*
D62*
X17207D3*
D60*
X18207D3*
D57*
X4707Y7981D3*
X5707D3*
X6707Y5981D3*
X7707Y7981D3*
X8707D3*
X10207D3*
X11207D3*
X12207Y5981D3*
X13207Y7981D3*
X14207D3*
X15707D3*
X16707D3*
X17707Y5981D3*
X18707Y7981D3*
X19707D3*
D49*
X43423Y12132D3*
X42360Y10282D3*
D47*
X44801D3*
D64*
X36534Y7253D3*
X37282D3*
D62*
X30304Y12421D3*
D60*
Y11421D3*
Y10421D3*
Y9421D3*
Y8421D3*
Y7421D3*
D45*
X36918Y9252D3*
Y11929D3*
X35343Y9252D3*
Y11929D3*
D22*
X38720Y12237D3*
X40220D3*
D64*
X38585Y7329D3*
X39333D3*
D62*
X20756Y4601D3*
D60*
X21756D3*
X22756D3*
X23756D3*
X24756D3*
X25756D3*
X26756D3*
X27756D3*
X28756D3*
X29756D3*
X30756D3*
X31756D3*
D62*
X44063Y4636D3*
D60*
X43063D3*
X42063D3*
X41063D3*
X40063D3*
X39063D3*
X38063D3*
X37063D3*
X36063D3*
X35063D3*
X34063D3*
X33063D3*
D64*
X20659Y12207D3*
X21407D3*
X20699Y10708D3*
X21447D3*
X20685Y9160D3*
X21433D3*
X22400Y12142D3*
X23148D3*
X22440Y10643D3*
X23188D3*
X22426Y9095D3*
X23174D3*
X22377Y7535D3*
X23125D3*
X20708Y7530D3*
X21456D3*
D62*
X24949Y11940D3*
D60*
Y10940D3*
Y9940D3*
Y8940D3*
Y7940D3*
D64*
X27487Y9005D3*
X28235D3*
X27537Y7526D3*
X28285D3*
D35*
X18970Y11206D3*
X41040Y7502D3*
M02*
