G04 DipTrace 2.4.0.2*
%INBottomMask.gbs*%
%MOIN*%
%ADD22C,0.0669*%
%ADD35C,0.126*%
%ADD42R,0.1024X0.0748*%
%ADD47R,0.1654X0.1654*%
%ADD49C,0.1654*%
%ADD51R,0.0669X0.0472*%
%ADD53R,0.0276X0.0748*%
%ADD55R,0.0748X0.0276*%
%ADD57C,0.0748*%
%ADD58R,0.0709X0.1142*%
%ADD60C,0.0748*%
%ADD62R,0.0748X0.0748*%
%ADD64R,0.0591X0.0669*%
%ADD66C,0.0984*%
%ADD68R,0.0984X0.0984*%
%ADD70C,0.0866*%
%FSLAX44Y44*%
G04*
G70*
G90*
G75*
G01*
%LNBotMask*%
%LPD*%
D35*
X32437Y25562D3*
D70*
X8749Y14875D3*
X12687D3*
X6781Y22737D3*
X14656D3*
X23249Y14875D3*
X27187D3*
X21281Y22737D3*
X29156D3*
X37749Y14875D3*
X41687D3*
X35781Y22737D3*
X43656D3*
D68*
X5259Y25988D3*
D66*
X7259D3*
D68*
X9516Y25967D3*
D66*
X11516D3*
D68*
X13774Y25968D3*
D66*
X15774D3*
D35*
X17812Y25562D3*
D64*
X6292Y18551D3*
X5544D3*
X6292Y20051D3*
X5544D3*
X8292D3*
X7544D3*
X8292Y18551D3*
X7544D3*
X12955D3*
X12207D3*
X12955Y20051D3*
X12207D3*
X14955D3*
X14207D3*
X14955Y18551D3*
X14207D3*
D62*
X5957Y11015D3*
D60*
X6957D3*
X7957D3*
X8957D3*
X9957D3*
D64*
X19871Y18551D3*
X19122D3*
X19871Y20051D3*
X19122D3*
X21871D3*
X21122D3*
X21871Y18551D3*
X21122D3*
D62*
X13157Y11006D3*
D60*
X14157D3*
X15157D3*
X16157D3*
X17157D3*
D62*
X6207Y6981D3*
D60*
X7207D3*
D58*
X29121Y19359D3*
X28019D3*
D64*
X26767Y19859D3*
X26019D3*
X26767Y18359D3*
X26019D3*
D62*
X11707Y6981D3*
D60*
X12707D3*
D58*
X33537Y19359D3*
X32434D3*
D64*
X31182Y19859D3*
X30434D3*
X31182Y18359D3*
X30434D3*
D62*
X17207Y6981D3*
D60*
X18207D3*
D58*
X38115Y19359D3*
X37012D3*
D64*
X35761Y19859D3*
X35012D3*
X35761Y18109D3*
X35012D3*
D57*
X4707Y7981D3*
X5707D3*
X6707Y5981D3*
X7707Y7981D3*
X8707D3*
X10207D3*
X11207D3*
X12207Y5981D3*
X13207Y7981D3*
X14207D3*
X15707D3*
X16707D3*
X17707Y5981D3*
X18707Y7981D3*
X19707D3*
D58*
X10731Y19485D3*
X9629D3*
X17376Y19377D3*
X16273D3*
X24345Y19322D3*
X23243D3*
D55*
X37073Y11764D3*
Y11449D3*
Y11134D3*
Y10819D3*
Y10504D3*
Y10189D3*
Y9874D3*
Y9559D3*
D53*
X36522Y9008D3*
X36207D3*
X35892D3*
X35577D3*
X35262D3*
X34947D3*
X34632D3*
X34317D3*
D55*
X33766Y9559D3*
Y9874D3*
Y10189D3*
Y10504D3*
Y10819D3*
Y11134D3*
Y11449D3*
Y11764D3*
D53*
X34317Y12315D3*
X34632D3*
X34947D3*
X35262D3*
X35577D3*
X35892D3*
X36207D3*
X36522D3*
D58*
X42290Y16530D3*
X41187D3*
X44290Y20030D3*
X43187D3*
D51*
X42105D3*
G36*
X42439Y19204D2*
X41747D1*
X41511Y18967D1*
X40612D1*
X40353Y19227D1*
Y19653D1*
X40612Y19912D1*
X41511D1*
X41747Y19676D1*
X42439D1*
Y19204D1*
G37*
D51*
X42105Y18849D3*
D64*
X44935Y18030D3*
X44187D3*
D49*
X43423Y12132D3*
X42360Y10282D3*
D47*
X44801D3*
D64*
X44935Y16530D3*
X44187D3*
X31955Y12711D3*
X32704D3*
D62*
X30304Y12421D3*
D60*
Y11421D3*
Y10421D3*
Y9421D3*
Y8421D3*
Y7421D3*
D64*
X32761Y14439D3*
X32013D3*
D22*
X38720Y12237D3*
X40220D3*
D64*
X34529Y7421D3*
X33781D3*
X32608Y10707D3*
X31860D3*
D42*
X38699Y8984D3*
Y10440D3*
D64*
X40513Y8983D3*
X39765D3*
X40543Y10441D3*
X39795D3*
X32633Y8929D3*
X31885D3*
D62*
X20756Y4601D3*
D60*
X21756D3*
X22756D3*
X23756D3*
X24756D3*
X25756D3*
X26756D3*
X27756D3*
X28756D3*
X29756D3*
X30756D3*
X31756D3*
D62*
X44063Y4636D3*
D60*
X43063D3*
X42063D3*
X41063D3*
X40063D3*
X39063D3*
X38063D3*
X37063D3*
X36063D3*
X35063D3*
X34063D3*
X33063D3*
D62*
X24949Y11940D3*
D60*
Y10940D3*
Y9940D3*
Y8940D3*
Y7940D3*
D35*
X18970Y11206D3*
X41040Y7502D3*
D64*
X7154Y9409D3*
X6406D3*
X12550D3*
X11802D3*
X17946D3*
X17198D3*
M02*
